<?xml version="1.0" encoding="utf-8"?>
<!-- Generator: Adobe Illustrator 28.1.0, SVG Export Plug-In . SVG Version: 6.00 Build 0)  -->
<svg version="1.1" id="Слой_1" xmlns="http://www.w3.org/2000/svg" xmlns:xlink="http://www.w3.org/1999/xlink" x="0px" y="0px"
	 viewBox="0 0 1080 1080" style="enable-background:new 0 0 1080 1080;" xml:space="preserve">
<style type="text/css">
	.st0{fill:#808080;}
	.st1{fill:#666666;}
	.st2{fill:#F2F2F2;}
</style>
<g>
	<ellipse class="st0" cx="559.5" cy="765.5" rx="150.5" ry="156.5"/>
	<path class="st1" d="M559.5,613c39.07,0,75.83,15.82,103.48,44.56C690.72,686.37,706,724.71,706,765.5s-15.28,79.13-43.02,107.94
		C635.33,902.18,598.57,918,559.5,918c-39.07,0-75.83-15.82-103.48-44.56C428.28,844.63,413,806.29,413,765.5
		s15.28-79.13,43.02-107.94C483.67,628.82,520.43,613,559.5,613 M559.5,605C474.17,605,405,676.86,405,765.5S474.17,926,559.5,926
		S714,854.14,714,765.5S644.83,605,559.5,605L559.5,605z"/>
</g>
<g>
	<g>
		<path class="st0" d="M559.37,637.5c-33.87,0-59.93-40.79-75.5-65.15c-30.1-47.12-53.28-107.55-62.01-161.65
			c-7.68-47.56-7.76-113.11,35.44-155.34c39.01-38.13,94.96-39.35,101.21-39.36c2.68,0,64.34,0.48,105.13,42.29
			c17.79,18.23,29.26,41.89,34.1,70.32c4.21,24.74,3.45,53.19-2.25,84.57c-12.9,70.95-45.7,131.46-55.45,148.32
			c-16.42,28.39-43.89,75.9-80.55,76H559.37z"/>
		<path class="st1" d="M558.58,220c1.77,0,17.85,0.16,38.33,5.54c26.05,6.85,47.54,18.81,63.86,35.55
			c17.21,17.64,28.32,40.59,33.02,68.2c4.13,24.28,3.38,52.27-2.24,83.18c-12.78,70.32-45.31,130.31-54.97,147.03
			c-15.98,27.64-42.74,73.91-77.1,74l-0.11,0c-13.41,0-26.62-6.8-40.38-20.78c-13.02-13.23-24.29-30.86-31.74-42.53
			c-13.64-21.36-26.4-46.65-36.9-73.14c-11.59-29.25-20.07-59.33-24.54-86.99c-7.52-46.62-7.68-110.81,34.29-151.84
			c37.88-37.03,92.34-38.21,98.43-38.22L558.58,220 M558.58,212c-0.03,0-0.06,0-0.08,0c-5.75,0.01-63.52,0.94-104,40.5
			c-79.14,77.36-27.1,238.87,26,322c17.61,27.56,43.52,67,78.87,67c0.04,0,0.09,0,0.13,0c38.18-0.11,65.61-46.19,84-78
			c39.83-68.87,101.63-227.4,23-308C625.01,212.97,563.81,212,558.58,212L558.58,212z"/>
	</g>
	<ellipse transform="matrix(0.5694 -0.822 0.822 0.5694 -110.6814 701.6826)" cx="614.5" cy="456.5" rx="34.5" ry="24.5"/>
	<ellipse transform="matrix(0.822 -0.5694 0.5694 0.822 -171.4158 364.2725)" cx="497.06" cy="456.37" rx="24.5" ry="34.5"/>
	<g>
		<path class="st2" d="M614.24,434.72c1.2,1.47-3.99,6.84-6.81,9.76c-1.82,1.89-9.74,10.08-11.56,8.56
			c-1.44-1.21,0.77-8.65,5.85-13.42C606.34,435.28,613.12,433.35,614.24,434.72z"/>
	</g>
	<g>
		<path class="st2" d="M491.57,433.89c0.01,0.03,0.03,0.06,0.05,0.12c0.53,1.67-4.57,2.88-7.62,7c-2.57,3.46-2.48,7.36-5.36,8.87
			c-0.15,0.08-0.38,0.19-0.64,0.13c-1.89-0.44-3.83-9.46,0.47-14.13C482.38,431.62,490.6,431.88,491.57,433.89z"/>
	</g>
</g>
<path class="st2" d="M710,399"/>
</svg>
