<?xml version="1.0" encoding="utf-8"?>
<!-- Generator: Adobe Illustrator 28.1.0, SVG Export Plug-In . SVG Version: 6.00 Build 0)  -->
<svg version="1.1" id="Слой_1" xmlns="http://www.w3.org/2000/svg" xmlns:xlink="http://www.w3.org/1999/xlink" x="0px" y="0px"
	 viewBox="0 0 1080 1080" style="enable-background:new 0 0 1080 1080;" xml:space="preserve">
<style type="text/css">
	.st0{fill:none;stroke:#9D7CFF;stroke-width:28;stroke-miterlimit:10;}
	.st1{fill:none;stroke:#666666;stroke-width:4;stroke-miterlimit:10;}
	.st2{fill:none;stroke:#666666;stroke-width:6;stroke-miterlimit:10;}
	.st3{fill:#B3B3B3;stroke:#666666;stroke-width:6;stroke-miterlimit:10;}
	.st4{fill:#808080;stroke:#666666;stroke-width:9;stroke-miterlimit:10;}
	.st5{fill:#808080;stroke:#666666;stroke-width:8;stroke-miterlimit:10;}
	.st6{fill:none;stroke:#666666;stroke-width:3;stroke-miterlimit:10;}
	.st7{fill:none;stroke:#666666;stroke-width:16;stroke-miterlimit:10;}
	.st8{opacity:0.97;fill:#B3B3B3;stroke:#666666;stroke-width:11.9994;stroke-miterlimit:9.9988;enable-background:new    ;}
</style>
<g>
	<path class="st0" d="M837.57,372.07c-26.1-6.6-67.5-8.5-115.9,5.3c-6,1.9-12.2,3.8-18.5,6l-4.4,3.1"/>
	<path class="st1" d="M678.07,721.87c-28,26.1-62.2,46.8-101.4,59.4"/>
	<path class="st2" d="M244.67,578.97c-5.7-46.8,3.1-93.3,22.6-134.7"/>
	<path class="st3" d="M267.27,444.57c15.4-31.1,50.6-88.9,115.9-122.5c5-2.5,27.6-13.8,59.7-22c2.8-0.6,60.6-14.8,113.1-6.3
		c72.2,11.6,160.2,70.3,191.6,169.6c32.7,103-11.3,202.3-69.4,258.8c-43.3,42.1-90.4,56.2-101.4,59.4
		c-130.5,36.4-283.5-47.7-322.4-157.6c-6.6-18.8-8.8-35.2-9.7-44.3"/>
	<path class="st0" d="M344.17,745.77c-99.6,28.3-172.7,29.5-188.4-2.2c-14.4-29.2,23.2-80.1,93.9-136.6"/>
	<path class="st1" d="M703.17,383.37"/>
	<path class="st4" d="M564.07,459.37c-17.3-3.5-32.3-28.6-25.8-48.1c3.5-10,11.6-15.7,16-18.5c3.1-2.2,22.3-14.1,40.8-6.3
		c21.4,9.1,30.5,39.6,20.7,55.3c-7.2,11.6-24.8,14.4-39.6,17C570.27,459.67,567.47,459.97,564.07,459.37z"/>
	<path class="st4" d="M464.17,484.47c0,19.5-11.6,43.7-32.3,49.3c-12.2,3.5-23.2-0.6-30.5-3.5c-19.8-7.5-29.5-23.2-32.3-28
		c-4.7-7.5-12.9-21-9.4-37.4c2.5-12.2,10-19.5,15.7-25.4c6.3-6.3,25.8-25.8,46.8-20.7c15.7,3.8,23.9,19.2,31.7,33.3
		C459.17,462.17,464.17,471.57,464.17,484.47z"/>
	<path class="st4" d="M274.77,443.07c4.1,0.3,9.1,11.9,18.8,34.5c6.6,15.4,10,23.2,9.4,28.3c-1.6,17-17.9,16.3-28.3,40.8
		c-5,12.2-4.1,19.5-12.6,28.3c-2.2,2.2-11,12.6-16.6,10.7c-9.1-3.1-6.3-34.5-5.3-45.2C244.67,496.07,260.97,441.77,274.77,443.07z"
		/>
	<path class="st1" d="M262.57,439.57c1.9,0.9,4.1,1.6,5.7,3.1"/>
	<path class="st4" d="M555.87,295.07c-3.1,13.8-8.5,23.9-17.3,28.6c-10.7,5.7-17.6-0.9-40.8,0c-23.6,0.9-30.8,8.8-40.8,3.1
		c-6.3-3.5-11.9-11.3-14.1-27.3"/>
	<path class="st4" d="M575.97,782.17c-10.4-13.5-20.4-19.2-28.3-22c-9.1-3.1-12.9-1.9-31.4-6c-17.3-3.8-18.8-6.3-25.1-6.6
		c-10.4-0.3-25.1,5-44.3,32.7"/>
	<path class="st4" d="M678.07,721.87c-1.9-6-4.4-16-2.8-28c1.3-10.4,5.7-18.5,14.1-34.5c10.7-20.1,16.3-30.1,25.1-34.5
		c11-5.7,22.9-3.8,29.5-2.2"/>
	<path class="st4" d="M635.97,637.77c-0.6,23.9-15.4,50.9-37.7,56.5c-7.5,1.9-13.8,0.9-18.8,0c-25.8-4.7-58.1-28-56.5-56.5
		c0.9-20.4,18.2-35.2,25.1-40.8c5.7-4.7,15.7-13.2,31.4-15.7c4.1-0.6,16.3-2.5,28.3,3.1C628.07,593.77,636.27,618.57,635.97,637.77z
		"/>
	<path class="st5" d="M423.97,672.27c0.3,2.8,0.9,15.1-7.9,25.1c-10.4,11.6-25.4,11-28.3,11c-21.4-0.6-42.7-20.1-40.8-36.1
		c0.6-5.3,3.5-8.8,9.4-15.7c7.5-8.8,17.6-20.7,31.4-20.4c10,0.3,17.3,6.9,22,11C413.87,650.57,422.67,658.77,423.97,672.27z"/>
	<path class="st4" d="M739.87,437.97c-2.5,0.9-17.9,7.5-22.6,23.9c-2.8,9.7-0.3,18.2,0.9,22.3c1.9,6,4.4,14.1,11.6,18.5
		c12.6,7.9,28.6-1.3,29.2-1.9"/>
	<path class="st4" d="M382.47,322.77c-6.3,10.7-10.7,19.8-13.5,26.1c-4.4,10.4-5,13.8-9.4,18.8c-6.6,7.5-15.4,10.4-22,12.6
		c-12.9,4.4-24.2,3.8-31.7,2.8"/>
	<path class="st6" d="M752.17,298.57"/>
	<path class="st6" d="M497.77,361.37"/>
	<path class="st7" d="M265.07,444.27c15.4-31.1,50.6-88.9,115.9-122.5c5-2.5,27.6-13.8,59.7-22c2.8-0.6,60.6-14.8,113.1-6.3
		c72.2,11.6,160.2,70.3,191.6,169.6c32.7,103-11.3,202.3-69.4,258.8c-43.5,42.1-90.6,56.3-101.6,59.4
		c-130.3,36.4-283.3-47.7-322.2-158c-6.6-18.8-8.8-35.2-9.7-44.3"/>
	<path class="st0" d="M860.77,435.47c-64.7,67.2-164.3,154.2-303.1,226.1c-89.5,46.2-173.4,74.4-242.1,92.3"/>
	<path class="st7" d="M243.37,578.97c-5.7-50.2,5.3-100.2,28.3-144.8"/>
	<path class="st1" d="M276.37,507.37"/>
	<g id="Слой_3">
		
			<ellipse transform="matrix(0.9529 -0.3032 0.3032 0.9529 -77.7121 284.9901)" class="st8" cx="878.94" cy="392.76" rx="48.4" ry="46.5"/>
	</g>
</g>
</svg>
