<?xml version="1.0" encoding="utf-8"?>
<!-- Generator: Adobe Illustrator 28.1.0, SVG Export Plug-In . SVG Version: 6.00 Build 0)  -->
<svg version="1.1" id="Слой_1" xmlns="http://www.w3.org/2000/svg" xmlns:xlink="http://www.w3.org/1999/xlink" x="0px" y="0px"
	 viewBox="0 0 1080 1080" style="enable-background:new 0 0 1080 1080;" xml:space="preserve">
<style type="text/css">
	.st0{fill:#B3B3B3;stroke:#808080;stroke-width:9;stroke-miterlimit:10;}
	.st1{fill:#CCCCCC;}
	.st2{fill:#808080;}
	.st3{fill:#CCCCCC;stroke:#808080;stroke-width:8;stroke-miterlimit:10;}
	.st4{stroke:#666666;stroke-width:8;stroke-miterlimit:10;}
	.st5{fill:#FFFFFF;}
</style>
<path class="st0" d="M650.98,719H451.02c-24.87,0-45.02-20.16-45.02-45.02V524.02c0-24.87,20.16-45.02,45.02-45.02h199.95
	c24.87,0,45.02,20.16,45.02,45.02v149.95C696,698.84,675.84,719,650.98,719z"/>
<g>
	<ellipse class="st1" cx="550.5" cy="665.5" rx="196.5" ry="121.5"/>
	<path class="st2" d="M550.5,548c52.07,0,100.92,12.62,137.53,35.54c35.45,22.19,54.97,51.3,54.97,81.96s-19.52,59.77-54.97,81.96
		C651.42,770.38,602.57,783,550.5,783s-100.92-12.62-137.53-35.54C377.52,725.27,358,696.17,358,665.5s19.52-59.77,54.97-81.96
		C449.58,560.62,498.43,548,550.5,548 M550.5,540C439.77,540,350,596.19,350,665.5S439.77,791,550.5,791S751,734.81,751,665.5
		S661.23,540,550.5,540L550.5,540z"/>
</g>
<g>
	<path class="st3" d="M700.75,373h-16.5c-2.3,0-4.51,0.35-6.59,0.99C652.67,333.35,605.98,306,552.5,306
		c-54.04,0-101.15,27.93-125.94,69.28c-2.96-1.46-6.29-2.28-9.82-2.28h-16.5c-12.29,0-22.25,9.96-22.25,22.25v84.5
		c0,12.29,9.96,22.25,22.25,22.25h16.5c1.96,0,3.86-0.26,5.66-0.73C445.81,546.69,495.27,578,552.5,578
		c56.96,0,106.22-31.02,129.75-76.09c0.66,0.06,1.33,0.09,2,0.09h16.5c12.29,0,22.25-9.96,22.25-22.25v-84.5
		C723,382.96,713.04,373,700.75,373z"/>
	<ellipse class="st4" cx="551" cy="450.5" rx="91" ry="89.5"/>
	<ellipse transform="matrix(0.7412 -0.6713 0.6713 0.7412 -141.8208 442.175)" class="st5" cx="502.5" cy="405" rx="17.5" ry="9"/>
</g>
</svg>
