<?xml version="1.0" encoding="utf-8"?>
<!-- Generator: Adobe Illustrator 28.1.0, SVG Export Plug-In . SVG Version: 6.00 Build 0)  -->
<svg version="1.1" id="Слой_1" xmlns="http://www.w3.org/2000/svg" xmlns:xlink="http://www.w3.org/1999/xlink" x="0px" y="0px"
	 viewBox="0 0 1080 1080" style="enable-background:new 0 0 1080 1080;" xml:space="preserve">
<style type="text/css">
	.st0{fill:#9D7CFF;}
	.st1{fill:#6A4FD3;}
</style>
<g>
	<path class="st0" d="M345.15,683c-15.52,0-28.15-12.63-28.15-28.15V377.15c0-15.52,12.63-28.15,28.15-28.15h181.69
		c15.52,0,28.15,12.63,28.15,28.15v277.69c0,15.52-12.63,28.15-28.15,28.15H345.15z"/>
	<path class="st1" d="M526.85,353c13.32,0,24.15,10.84,24.15,24.15v277.69c0,13.32-10.84,24.15-24.15,24.15H345.15
		c-13.32,0-24.15-10.84-24.15-24.15V377.15c0-13.32,10.84-24.15,24.15-24.15H526.85 M526.85,345H345.15
		C327.4,345,313,359.4,313,377.15v277.69c0,17.76,14.4,32.15,32.15,32.15h181.69c17.76,0,32.15-14.4,32.15-32.15V377.15
		C559,359.4,544.6,345,526.85,345L526.85,345z"/>
</g>
<g>
	<path class="st0" d="M345.22,683c-15.56,0-28.22-12.66-28.22-28.22V424.22c0-15.56,12.66-28.22,28.22-28.22h390.57
		c15.56,0,28.22,12.66,28.22,28.22v230.57c0,15.56-12.66,28.22-28.22,28.22H345.22z"/>
	<path class="st1" d="M735.78,400c13.35,0,24.22,10.86,24.22,24.22v230.57c0,13.35-10.86,24.22-24.22,24.22H345.22
		c-13.35,0-24.22-10.86-24.22-24.22V424.22c0-13.35,10.86-24.22,24.22-24.22H735.78 M735.78,392H345.22
		c-17.79,0-32.22,14.42-32.22,32.22v230.57c0,17.79,14.42,32.22,32.22,32.22h390.57c17.79,0,32.22-14.42,32.22-32.22V424.22
		C768,406.42,753.58,392,735.78,392L735.78,392z"/>
</g>
</svg>
